<svg xmlns="http://www.w3.org/2000/svg" xmlns:xlink="http://www.w3.org/1999/xlink" width="1920" zoomAndPan="magnify" viewBox="0 0 1440 1439.999935" height="1920" preserveAspectRatio="xMidYMid meet" version="1.0"><defs><g/><clipPath id="3785f139f7"><path d="M 30 121 L 1410 121 L 1410 1318.132812 L 30 1318.132812 Z M 30 121 " clip-rule="nonzero"/></clipPath><clipPath id="470af1c0a4"><path d="M 97.894531 121.867188 L 1342.105469 121.867188 C 1379.386719 121.867188 1409.605469 152.089844 1409.605469 189.367188 L 1409.605469 1250.632812 C 1409.605469 1287.910156 1379.386719 1318.132812 1342.105469 1318.132812 L 97.894531 1318.132812 C 60.613281 1318.132812 30.394531 1287.910156 30.394531 1250.632812 L 30.394531 189.367188 C 30.394531 152.089844 60.613281 121.867188 97.894531 121.867188 Z M 97.894531 121.867188 " clip-rule="nonzero"/></clipPath><clipPath id="b63e4cf375"><path d="M 0.238281 0.679688 L 1379 0.679688 L 1379 1197.132812 L 0.238281 1197.132812 Z M 0.238281 0.679688 " clip-rule="nonzero"/></clipPath><clipPath id="089bd7a4c0"><path d="M 67.894531 0.867188 L 1312.105469 0.867188 C 1349.386719 0.867188 1379.605469 31.089844 1379.605469 68.367188 L 1379.605469 1129.632812 C 1379.605469 1166.910156 1349.386719 1197.132812 1312.105469 1197.132812 L 67.894531 1197.132812 C 30.613281 1197.132812 0.394531 1166.910156 0.394531 1129.632812 L 0.394531 68.367188 C 0.394531 31.089844 30.613281 0.867188 67.894531 0.867188 Z M 67.894531 0.867188 " clip-rule="nonzero"/></clipPath><clipPath id="33c5ee8606"><rect x="0" width="1380" y="0" height="1198"/></clipPath><clipPath id="71c817c391"><path d="M 380 144 L 904 144 L 904 683 L 380 683 Z M 380 144 " clip-rule="nonzero"/></clipPath><clipPath id="37a6c59c02"><path d="M 481 193 L 1060 193 L 1060 929.25 L 481 929.25 Z M 481 193 " clip-rule="nonzero"/></clipPath><clipPath id="91f3593f5d"><rect x="0" width="1234" y="0" height="200"/></clipPath><clipPath id="e733d20a6a"><rect x="0" width="955" y="0" height="109"/></clipPath></defs><g clip-path="url(#3785f139f7)"><g clip-path="url(#470af1c0a4)"><g transform="matrix(1, 0, 0, 1, 30, 121)"><g clip-path="url(#33c5ee8606)"><g clip-path="url(#b63e4cf375)"><g clip-path="url(#089bd7a4c0)"><path fill="#f2f2f2" d="M 0.394531 0.867188 L 1378.898438 0.867188 L 1378.898438 1197.132812 L 0.394531 1197.132812 Z M 0.394531 0.867188 " fill-opacity="1" fill-rule="nonzero"/></g></g></g></g></g></g><g clip-path="url(#71c817c391)"><path fill="#274082" d="M 719.996094 227.503906 L 874.984375 316.980469 C 885.304688 295.714844 894.785156 273.320312 903.257812 249.792969 L 719.996094 143.988281 L 380.066406 340.242188 L 380.066406 352.566406 C 380.066406 468 410.574219 581.851562 468.289062 681.828125 C 468.363281 681.953125 468.441406 682.082031 468.515625 682.207031 L 472.492188 680.683594 C 486.863281 675.15625 507.015625 666.75 530.960938 654.929688 C 482.300781 573.378906 454.46875 479.464844 452.511719 381.9375 L 719.996094 227.503906 " fill-opacity="1" fill-rule="nonzero"/></g><g clip-path="url(#37a6c59c02)"><path fill="#ff3131" d="M 966.351562 286.21875 C 963.289062 308.207031 958.367188 333.257812 950.597656 360.628906 L 987.484375 381.9375 C 983.675781 571.457031 882.191406 747.273438 719.996094 845.363281 C 678.726562 820.40625 641.402344 790.394531 608.605469 756.421875 C 988.339844 504.128906 945.664062 193.277344 945.664062 193.277344 C 857.132812 534.035156 570.351562 668.660156 481.046875 702.949219 C 498.160156 730.171875 517.226562 756.023438 538.03125 780.367188 C 538.023438 780.367188 538.015625 780.367188 538.011719 780.375 C 538.328125 780.742188 538.652344 781.105469 538.964844 781.472656 C 540.503906 783.257812 542.066406 785.023438 543.625 786.796875 C 545.160156 788.554688 546.6875 790.316406 548.246094 792.050781 C 548.609375 792.449219 548.957031 792.863281 549.320312 793.261719 C 549.328125 793.261719 549.335938 793.253906 549.34375 793.253906 C 595.402344 844.371094 649.359375 888.234375 709.324219 922.855469 L 719.996094 929.015625 L 730.664062 922.855469 C 830.640625 865.136719 913.984375 781.792969 971.707031 681.828125 C 1029.417969 581.851562 1059.925781 468 1059.925781 352.566406 L 1059.925781 340.242188 L 966.351562 286.21875 " fill-opacity="1" fill-rule="nonzero"/></g><g transform="matrix(1, 0, 0, 1, 120, 919)"><g clip-path="url(#91f3593f5d)"><g fill="#ff3131" fill-opacity="1"><g transform="translate(2.55611, 156.499364)"><g><path d="M 51.84375 -11.859375 C 56.394531 -10.046875 60.859375 -9.140625 65.234375 -9.140625 C 80.117188 -9.140625 91.96875 -13.5 100.78125 -22.21875 C 109.59375 -30.9375 114 -42.648438 114 -57.359375 C 114 -62.421875 112.707031 -67.742188 110.125 -73.328125 C 107.550781 -78.910156 104.097656 -84.015625 99.765625 -88.640625 C 95.441406 -93.273438 90.148438 -97.101562 83.890625 -100.125 C 77.640625 -103.144531 70.5625 -104.65625 62.65625 -104.65625 C 54.75 -104.65625 47.28125 -102.65625 40.25 -98.65625 C 33.226562 -94.65625 27.8125 -89.117188 24 -82.046875 C 20.1875 -74.984375 18.28125 -66.785156 18.28125 -57.453125 C 18.28125 -48.128906 21.6875 -39.070312 28.5 -30.28125 C 35.3125 -21.488281 43.09375 -15.347656 51.84375 -11.859375 Z M 22.609375 -15.171875 C 17.398438 -20.585938 13.257812 -27.03125 10.1875 -34.5 C 7.113281 -41.96875 5.578125 -49.6875 5.578125 -57.65625 C 5.578125 -65.632812 7.191406 -73.238281 10.421875 -80.46875 C 13.660156 -87.707031 17.941406 -93.96875 23.265625 -99.25 C 28.585938 -104.53125 34.863281 -108.75 42.09375 -111.90625 C 49.332031 -115.070312 56.507812 -116.65625 63.625 -116.65625 C 70.75 -116.65625 77.398438 -115.722656 83.578125 -113.859375 C 95.816406 -110.191406 106.015625 -103.34375 114.171875 -93.3125 C 122.335938 -83.289062 126.421875 -71.515625 126.421875 -57.984375 C 126.421875 -50.023438 124.976562 -42.414062 122.09375 -35.15625 C 119.207031 -27.90625 115.171875 -21.476562 109.984375 -15.875 C 104.804688 -10.269531 98.273438 -5.789062 90.390625 -2.4375 C 82.503906 0.90625 74.1875 2.578125 65.4375 2.578125 C 56.695312 2.578125 48.675781 0.972656 41.375 -2.234375 C 34.070312 -5.441406 27.816406 -9.753906 22.609375 -15.171875 Z M 22.609375 -15.171875 "/></g></g></g><g fill="#ff3131" fill-opacity="1"><g transform="translate(168.553481, 156.499364)"><g><path d="M 8.9375 -114.28125 L 31.53125 -114.28125 C 32.132812 -114.28125 32.4375 -113.875 32.4375 -113.0625 C 32.4375 -112.25 32.332031 -111.757812 32.125 -111.59375 C 31.914062 -111.4375 31.625 -111.273438 31.25 -111.109375 C 30.882812 -110.941406 30.410156 -110.566406 29.828125 -109.984375 C 29.242188 -109.410156 28.625 -108.34375 27.96875 -106.78125 C 27.320312 -105.226562 27 -103.660156 27 -102.078125 L 27 -70.328125 L 106.125 -70.328125 L 106.125 -102.078125 C 106.125 -105.472656 105.003906 -108.285156 102.765625 -110.515625 C 102.585938 -110.703125 102.191406 -110.9375 101.578125 -111.21875 C 100.972656 -111.5 100.671875 -112.078125 100.671875 -112.953125 C 100.671875 -113.835938 100.976562 -114.28125 101.59375 -114.28125 L 124.1875 -114.28125 C 124.789062 -114.28125 125.09375 -113.875 125.09375 -113.0625 C 125.09375 -112.25 124.988281 -111.757812 124.78125 -111.59375 C 124.570312 -111.4375 124.28125 -111.273438 123.90625 -111.109375 C 123.539062 -110.941406 123.066406 -110.566406 122.484375 -109.984375 C 121.898438 -109.410156 121.28125 -108.34375 120.625 -106.78125 C 119.976562 -105.226562 119.65625 -103.660156 119.65625 -102.078125 L 119.65625 -12.203125 C 119.65625 -8.804688 120.769531 -5.992188 123 -3.765625 C 123.1875 -3.578125 123.582031 -3.34375 124.1875 -3.0625 C 124.789062 -2.789062 125.09375 -2.210938 125.09375 -1.328125 C 125.09375 -0.441406 124.789062 0 124.1875 0 L 101.59375 0 C 100.976562 0 100.671875 -0.40625 100.671875 -1.21875 C 100.671875 -2.03125 100.773438 -2.519531 100.984375 -2.6875 C 101.203125 -2.851562 101.492188 -3.015625 101.859375 -3.171875 C 102.234375 -3.335938 102.710938 -3.707031 103.296875 -4.28125 C 103.878906 -4.863281 104.492188 -5.9375 105.140625 -7.5 C 105.796875 -9.0625 106.125 -10.628906 106.125 -12.203125 L 106.125 -58.75 L 27 -58.75 L 27 -12.203125 C 27 -8.804688 28.113281 -5.992188 30.34375 -3.765625 C 30.53125 -3.578125 30.925781 -3.34375 31.53125 -3.0625 C 32.132812 -2.789062 32.4375 -2.210938 32.4375 -1.328125 C 32.4375 -0.441406 32.132812 0 31.53125 0 L 8.9375 0 C 8.332031 0 8.03125 -0.40625 8.03125 -1.21875 C 8.03125 -2.03125 8.132812 -2.519531 8.34375 -2.6875 C 8.550781 -2.851562 8.835938 -3.015625 9.203125 -3.171875 C 9.578125 -3.335938 10.054688 -3.707031 10.640625 -4.28125 C 11.222656 -4.863281 11.835938 -5.9375 12.484375 -7.5 C 13.140625 -9.0625 13.46875 -10.628906 13.46875 -12.203125 L 13.46875 -102.078125 C 13.46875 -105.472656 12.347656 -108.285156 10.109375 -110.515625 C 9.929688 -110.703125 9.539062 -110.9375 8.9375 -111.21875 C 8.332031 -111.5 8.03125 -112.078125 8.03125 -112.953125 C 8.03125 -113.835938 8.332031 -114.28125 8.9375 -114.28125 Z M 8.9375 -114.28125 "/></g></g></g><g fill="#ff3131" fill-opacity="1"><g transform="translate(337.062148, 156.499364)"><g><path d="M 24.203125 -0.84375 C 22.804688 -1.164062 21.269531 -1.59375 19.59375 -2.125 C 17.925781 -2.664062 16.859375 -2.9375 16.390625 -2.9375 L 15.546875 -2.9375 C 13.921875 -2.9375 12.664062 -2.003906 11.78125 -0.140625 C 11.738281 -0.046875 11.691406 0 11.640625 0 L 9.625 0 C 9.34375 0 9.179688 -0.113281 9.140625 -0.34375 L 3.140625 -20.9375 C 2.898438 -21.90625 3.597656 -22.390625 5.234375 -22.390625 C 5.878906 -22.390625 6.316406 -22.257812 6.546875 -22 C 6.785156 -21.75 6.953125 -21.578125 7.046875 -21.484375 C 7.140625 -21.390625 7.347656 -21.066406 7.671875 -20.515625 C 13.804688 -12.929688 22.804688 -9.140625 34.671875 -9.140625 C 40.898438 -9.140625 46.070312 -10.78125 50.1875 -14.0625 C 54.3125 -17.34375 56.375 -22.164062 56.375 -28.53125 C 56.375 -32.8125 55.6875 -36.007812 54.3125 -38.125 C 52.9375 -40.238281 51.804688 -41.832031 50.921875 -42.90625 C 49.066406 -45.1875 44.613281 -48.328125 37.5625 -52.328125 C 30.519531 -56.328125 24.8125 -59.910156 20.4375 -63.078125 C 9.269531 -71.117188 3.6875 -79.394531 3.6875 -87.90625 C 3.6875 -96.414062 6.347656 -103 11.671875 -107.65625 C 17.003906 -112.3125 24.066406 -114.640625 32.859375 -114.640625 C 37.785156 -114.640625 42.992188 -113.3125 48.484375 -110.65625 C 51.085938 -109.394531 52.992188 -108.554688 54.203125 -108.140625 C 55.410156 -107.722656 56.25 -107.96875 56.71875 -108.875 C 57.1875 -109.78125 57.46875 -110.234375 57.5625 -110.234375 C 59.65625 -110.472656 60.703125 -110.148438 60.703125 -109.265625 L 62.78125 -86.859375 C 62.78125 -86.441406 61.710938 -86.234375 59.578125 -86.234375 C 59.253906 -86.234375 58.972656 -86.65625 58.734375 -87.5 C 57.296875 -92.238281 53.925781 -96.175781 48.625 -99.3125 C 43.320312 -102.457031 38.019531 -104.03125 32.71875 -104.03125 C 21.457031 -104.03125 15.828125 -99.378906 15.828125 -90.078125 C 15.828125 -83.328125 21.921875 -76.601562 34.109375 -69.90625 L 47.375 -62.796875 C 55.507812 -58.285156 61.21875 -53.410156 64.5 -48.171875 C 67.78125 -42.941406 69.421875 -37.347656 69.421875 -31.390625 L 69.421875 -30.703125 C 68.253906 -22.703125 66.859375 -17.257812 65.234375 -14.375 C 62.535156 -9.625 58.695312 -5.816406 53.71875 -2.953125 C 48.738281 -0.0976562 43.085938 1.328125 36.765625 1.328125 C 33.273438 1.179688 30.414062 0.832031 28.1875 0.28125 Z M 24.203125 -0.84375 "/></g></g></g><g fill="#ff3131" fill-opacity="1"><g transform="translate(443.137222, 156.499364)"><g/></g></g><g fill="#ff3131" fill-opacity="1"><g transform="translate(512.868274, 156.499364)"><g><path d="M 8.03125 -10.671875 C 8.03125 -10.671875 23.332031 -44.929688 53.9375 -113.453125 C 54.164062 -114.003906 55.300781 -114.28125 57.34375 -114.28125 C 59.394531 -114.28125 60.5625 -114.003906 60.84375 -113.453125 L 108.140625 -10.671875 C 109.953125 -6.441406 111.742188 -3.90625 113.515625 -3.0625 C 114.117188 -2.789062 114.421875 -2.210938 114.421875 -1.328125 C 114.421875 -0.441406 114.117188 0 113.515625 0 L 88.265625 0 C 87.660156 0 87.359375 -0.40625 87.359375 -1.21875 C 87.359375 -2.03125 87.460938 -2.519531 87.671875 -2.6875 C 87.878906 -2.851562 88.164062 -3.015625 88.53125 -3.171875 C 88.90625 -3.335938 89.210938 -3.535156 89.453125 -3.765625 C 91.210938 -5.535156 92.09375 -7.175781 92.09375 -8.6875 C 92.09375 -10.195312 91.929688 -11.441406 91.609375 -12.421875 L 81.5 -36.34375 L 31.1875 -36.34375 L 21.28125 -12.421875 C 20.957031 -11.441406 20.796875 -10.695312 20.796875 -10.1875 L 20.796875 -9.421875 C 20.796875 -9.367188 20.796875 -9.320312 20.796875 -9.28125 C 20.796875 -7.375 21.675781 -5.535156 23.4375 -3.765625 C 23.625 -3.578125 24.019531 -3.34375 24.625 -3.0625 C 25.226562 -2.789062 25.53125 -2.210938 25.53125 -1.328125 C 25.53125 -0.441406 25.226562 0 24.625 0 L 2.65625 0 C 2.050781 0 1.75 -0.40625 1.75 -1.21875 C 1.75 -2.03125 1.851562 -2.519531 2.0625 -2.6875 C 2.269531 -2.851562 2.5625 -3.023438 2.9375 -3.203125 C 4.46875 -3.859375 6.164062 -6.347656 8.03125 -10.671875 Z M 36.140625 -47.4375 C 36.046875 -47.300781 36.019531 -47.128906 36.0625 -46.921875 C 36.113281 -46.710938 36.207031 -46.609375 36.34375 -46.609375 L 76.1875 -46.609375 C 76.332031 -46.609375 76.425781 -46.710938 76.46875 -46.921875 C 76.507812 -47.128906 76.488281 -47.300781 76.40625 -47.4375 L 56.234375 -91.265625 L 55.75 -91.265625 Z M 36.140625 -47.4375 "/></g></g></g><g fill="#ff3131" fill-opacity="1"><g transform="translate(663.030536, 156.499364)"><g><path d="M 44.03125 0 L 8.9375 0 C 8.332031 0 8.03125 -0.40625 8.03125 -1.21875 C 8.03125 -2.03125 8.132812 -2.519531 8.34375 -2.6875 C 8.550781 -2.851562 8.835938 -3.015625 9.203125 -3.171875 C 9.578125 -3.335938 10.054688 -3.707031 10.640625 -4.28125 C 11.222656 -4.863281 11.835938 -5.9375 12.484375 -7.5 C 13.140625 -9.0625 13.46875 -10.628906 13.46875 -12.203125 L 13.46875 -102.078125 C 13.46875 -105.472656 12.347656 -108.285156 10.109375 -110.515625 C 9.929688 -110.703125 9.539062 -110.9375 8.9375 -111.21875 C 8.332031 -111.5 8.03125 -112.078125 8.03125 -112.953125 C 8.03125 -113.835938 8.332031 -114.28125 8.9375 -114.28125 L 40.53125 -114.28125 C 51.882812 -114.28125 62.75 -111.210938 73.125 -105.078125 C 80.46875 -100.703125 86.554688 -94.523438 91.390625 -86.546875 C 96.234375 -78.566406 98.65625 -68.878906 98.65625 -57.484375 C 98.65625 -50.234375 97.304688 -43.15625 94.609375 -36.25 C 91.910156 -29.34375 88.222656 -23.210938 83.546875 -17.859375 C 78.867188 -12.515625 73.078125 -8.203125 66.171875 -4.921875 C 59.265625 -1.640625 51.882812 0 44.03125 0 Z M 27 -13.53125 C 27 -11.8125 28.414062 -10.953125 31.25 -10.953125 L 39.078125 -10.953125 C 57.960938 -11.003906 71.078125 -17.445312 78.421875 -30.28125 C 82.703125 -37.769531 84.84375 -46.835938 84.84375 -57.484375 C 84.84375 -70.460938 81.257812 -81.1875 74.09375 -89.65625 C 70.507812 -93.882812 65.738281 -97.195312 59.78125 -99.59375 C 53.832031 -101.988281 46.976562 -103.1875 39.21875 -103.1875 L 28.46875 -103.1875 C 28.09375 -103.1875 27.753906 -103.046875 27.453125 -102.765625 C 27.148438 -102.492188 27 -102.144531 27 -101.71875 Z M 27 -13.53125 "/></g></g></g><g fill="#ff3131" fill-opacity="1"><g transform="translate(800.427046, 156.499364)"><g><path d="M 27 -107.71875 C 24.070312 -108.695312 21.769531 -109.1875 20.09375 -109.1875 C 17.582031 -109.1875 15.582031 -109.054688 14.09375 -108.796875 C 12.601562 -108.546875 11.785156 -108.535156 11.640625 -108.765625 C 11.503906 -109.003906 11.4375 -109.351562 11.4375 -109.8125 C 11.4375 -110.28125 11.597656 -110.769531 11.921875 -111.28125 C 12.253906 -111.789062 12.648438 -112.09375 13.109375 -112.1875 C 20.046875 -113.769531 29.535156 -114.5625 41.578125 -114.5625 L 76.609375 -57.359375 L 77.3125 -57.359375 L 110.796875 -114.5625 C 122.835938 -114.5625 132.328125 -113.769531 139.265625 -112.1875 C 140.378906 -111.957031 140.9375 -111.097656 140.9375 -109.609375 C 140.9375 -108.773438 140.191406 -108.484375 138.703125 -108.734375 C 137.210938 -108.992188 135.234375 -109.125 132.765625 -109.125 C 130.304688 -109.125 127.679688 -108.585938 124.890625 -107.515625 L 138.21875 -12.203125 C 138.863281 -7.234375 140.375 -4.1875 142.75 -3.0625 C 143.351562 -2.789062 143.65625 -2.210938 143.65625 -1.328125 C 143.65625 -0.441406 143.351562 0 142.75 0 L 119.515625 0 C 118.910156 0 118.609375 -0.40625 118.609375 -1.21875 C 118.609375 -2.03125 118.710938 -2.519531 118.921875 -2.6875 C 119.128906 -2.851562 119.421875 -3.023438 119.796875 -3.203125 C 121.003906 -3.722656 122.0625 -5.085938 122.96875 -7.296875 C 123.875 -9.503906 124.328125 -11.015625 124.328125 -11.828125 C 124.328125 -12.640625 124.304688 -13.1875 124.265625 -13.46875 L 113.03125 -96.359375 L 112.6875 -96.359375 L 78.21875 -36.078125 C 78.070312 -35.835938 77.21875 -35.738281 75.65625 -35.78125 C 74.101562 -35.832031 73.28125 -35.929688 73.1875 -36.078125 L 37.25 -96.359375 L 36.625 -96.359375 L 26.375 -13.46875 C 26.144531 -11.976562 26.445312 -10.21875 27.28125 -8.1875 C 28.113281 -6.164062 28.804688 -4.875 29.359375 -4.3125 C 29.921875 -3.757812 30.503906 -3.34375 31.109375 -3.0625 C 31.722656 -2.789062 32.03125 -2.210938 32.03125 -1.328125 C 32.03125 -0.441406 31.726562 0 31.125 0 L 9.84375 0 C 9.238281 0 8.9375 -0.40625 8.9375 -1.21875 C 8.9375 -2.03125 9.039062 -2.519531 9.25 -2.6875 C 9.457031 -2.851562 9.742188 -3.023438 10.109375 -3.203125 C 12.296875 -4.140625 13.71875 -7.140625 14.375 -12.203125 Z M 27 -107.71875 "/></g></g></g><g fill="#ff3131" fill-opacity="1"><g transform="translate(987.491396, 156.499364)"><g><path d="M 8.9375 -114.28125 L 31.53125 -114.28125 C 32.132812 -114.28125 32.4375 -113.875 32.4375 -113.0625 C 32.4375 -112.25 32.332031 -111.757812 32.125 -111.59375 C 31.914062 -111.4375 31.625 -111.273438 31.25 -111.109375 C 30.882812 -110.941406 30.410156 -110.566406 29.828125 -109.984375 C 29.242188 -109.410156 28.625 -108.34375 27.96875 -106.78125 C 27.320312 -105.226562 27 -103.660156 27 -102.078125 L 27 -12.203125 C 27 -8.804688 28.113281 -5.992188 30.34375 -3.765625 C 30.53125 -3.578125 30.925781 -3.34375 31.53125 -3.0625 C 32.132812 -2.789062 32.4375 -2.210938 32.4375 -1.328125 C 32.4375 -0.441406 32.132812 0 31.53125 0 L 8.9375 0 C 8.332031 0 8.03125 -0.40625 8.03125 -1.21875 C 8.03125 -2.03125 8.132812 -2.519531 8.34375 -2.6875 C 8.550781 -2.851562 8.835938 -3.015625 9.203125 -3.171875 C 9.578125 -3.335938 10.054688 -3.707031 10.640625 -4.28125 C 11.222656 -4.863281 11.835938 -5.9375 12.484375 -7.5 C 13.140625 -9.0625 13.46875 -10.628906 13.46875 -12.203125 L 13.46875 -102.078125 C 13.46875 -105.472656 12.347656 -108.285156 10.109375 -110.515625 C 9.929688 -110.703125 9.539062 -110.9375 8.9375 -111.21875 C 8.332031 -111.5 8.03125 -112.078125 8.03125 -112.953125 C 8.03125 -113.835938 8.332031 -114.28125 8.9375 -114.28125 Z M 8.9375 -114.28125 "/></g></g></g><g fill="#ff3131" fill-opacity="1"><g transform="translate(1063.36117, 156.499364)"><g><path d="M 26.296875 -114.28125 C 26.722656 -114.28125 27.117188 -114.09375 27.484375 -113.71875 L 105.5 -30.984375 L 105.984375 -30.984375 L 105.984375 -102.078125 C 105.984375 -105.421875 104.84375 -108.234375 102.5625 -110.515625 C 102.375 -110.703125 101.976562 -110.9375 101.375 -111.21875 C 100.769531 -111.5 100.46875 -112.078125 100.46875 -112.953125 C 100.46875 -113.835938 100.769531 -114.28125 101.375 -114.28125 L 124.1875 -114.28125 C 124.789062 -114.28125 125.09375 -113.875 125.09375 -113.0625 C 125.09375 -112.25 124.988281 -111.757812 124.78125 -111.59375 C 124.570312 -111.4375 124.28125 -111.273438 123.90625 -111.109375 C 123.539062 -110.941406 123.054688 -110.554688 122.453125 -109.953125 C 121.847656 -109.347656 121.207031 -108.28125 120.53125 -106.75 C 119.851562 -105.21875 119.515625 -103.660156 119.515625 -102.078125 L 119.515625 -3.703125 C 119.515625 -1.972656 119.289062 -0.921875 118.84375 -0.546875 C 118.40625 -0.179688 117.695312 0 116.71875 0 C 115.75 0 114.960938 -0.28125 114.359375 -0.84375 L 26.65625 -93.90625 L 26.65625 -12.203125 C 26.65625 -8.628906 27.675781 -5.816406 29.71875 -3.765625 C 29.90625 -3.578125 30.300781 -3.34375 30.90625 -3.0625 C 31.507812 -2.789062 31.8125 -2.210938 31.8125 -1.328125 C 31.8125 -0.441406 31.507812 0 30.90625 0 L 8.4375 0 C 7.832031 0 7.53125 -0.40625 7.53125 -1.21875 C 7.53125 -2.03125 7.632812 -2.519531 7.84375 -2.6875 C 8.050781 -2.851562 8.34375 -3.015625 8.71875 -3.171875 C 9.09375 -3.335938 9.394531 -3.535156 9.625 -3.765625 C 11.945312 -6.085938 13.109375 -8.898438 13.109375 -12.203125 L 13.109375 -102.078125 C 13.109375 -105.515625 12.019531 -108.328125 9.84375 -110.515625 C 9.65625 -110.703125 9.257812 -110.9375 8.65625 -111.21875 C 8.050781 -111.5 7.75 -112.078125 7.75 -112.953125 C 7.75 -113.835938 8.050781 -114.28125 8.65625 -114.28125 Z M 26.296875 -114.28125 "/></g></g></g></g></g><g transform="matrix(1, 0, 0, 1, 259, 1105)"><g clip-path="url(#e733d20a6a)"><g fill="#274082" fill-opacity="1"><g transform="translate(2.437493, 81.191519)"><g><path d="M 13.8125 0.09375 L 5.078125 -60.875 L 0.578125 -60.875 L 0.578125 -62.984375 L 16.734375 -62.984375 L 16.734375 -60.875 L 12.90625 -60.875 L 18.3125 -16.375 L 17.359375 -14.171875 L 23.75 -57.234375 L 24.296875 -52.0625 L 22.625 -60.875 L 18.71875 -60.875 L 18.71875 -62.984375 L 34.375 -62.984375 L 34.375 -60.875 L 30.140625 -60.875 L 36.53125 -16.78125 L 35.71875 -14.578125 L 41.4375 -60.875 L 37.53125 -60.875 L 37.53125 -62.984375 L 48 -62.984375 L 48 -60.875 L 43.78125 -60.875 L 35.453125 0.09375 L 32.484375 0.09375 L 24.390625 -51.609375 L 25.375 -52.953125 L 16.734375 0.09375 Z M 13.8125 0.09375 "/></g></g></g><g fill="#274082" fill-opacity="1"><g transform="translate(84.095235, 81.191519)"><g><path d="M 2.796875 0 L 2.796875 -2.109375 L 7.0625 -2.109375 L 7.0625 -60.875 L 2.796875 -60.875 L 2.796875 -62.984375 L 18.09375 -62.984375 L 18.09375 -60.875 L 13.765625 -60.875 L 13.765625 -2.109375 L 18.09375 -2.109375 L 18.09375 0 Z M 2.796875 0 "/></g></g></g><g fill="#274082" fill-opacity="1"><g transform="translate(138.546133, 81.191519)"><g><path d="M 1.390625 0 L 1.390625 -2.109375 L 5.578125 -2.109375 L 5.578125 -60.875 L 1.390625 -60.875 L 1.390625 -62.984375 L 16.46875 -62.984375 L 16.46875 -60.875 L 12.234375 -60.875 L 12.234375 -33.0625 L 25.28125 -60.875 L 21.234375 -60.875 L 21.234375 -62.984375 L 31.3125 -62.984375 L 31.3125 -60.875 L 27.765625 -60.875 L 16.28125 -35.90625 L 16.515625 -38.515625 L 28.484375 -2.109375 L 32.03125 -2.109375 L 32.03125 0 L 18.046875 0 L 18.046875 -2.109375 L 21.328125 -2.109375 L 11.5625 -31.625 L 12.234375 -31.5 L 12.234375 -2.109375 L 15.921875 -2.109375 L 15.921875 0 Z M 1.390625 0 "/></g></g></g><g fill="#274082" fill-opacity="1"><g transform="translate(205.678548, 81.191519)"><g><path d="M 2.25 0 L 2.25 -2.109375 L 6.4375 -2.109375 L 6.4375 -60.875 L 2.25 -60.875 L 2.25 -62.984375 L 27.046875 -62.984375 L 27.046875 -49.984375 L 24.875 -49.984375 C 24.875 -52.410156 24.6875 -54.429688 24.3125 -56.046875 C 23.9375 -57.671875 23.289062 -58.878906 22.375 -59.671875 C 21.46875 -60.472656 20.203125 -60.875 18.578125 -60.875 L 13.1875 -60.875 L 13.1875 -32.625 L 22.359375 -32.625 L 22.359375 -37.390625 L 24.4375 -37.390625 L 24.4375 -25.78125 L 22.359375 -25.78125 L 22.359375 -30.453125 L 13.1875 -30.453125 L 13.1875 -2.109375 L 18.453125 -2.109375 C 20.097656 -2.109375 21.378906 -2.519531 22.296875 -3.34375 C 23.210938 -4.175781 23.867188 -5.410156 24.265625 -7.046875 C 24.671875 -8.679688 24.875 -10.710938 24.875 -13.140625 L 27.046875 -13.140625 L 27.046875 0 Z M 2.25 0 "/></g></g></g><g fill="#274082" fill-opacity="1"><g transform="translate(269.348324, 81.191519)"><g><path d="M 1.75 0 L 1.75 -2.109375 L 5.84375 -2.109375 L 5.84375 -60.875 L 1.75 -60.875 L 1.75 -62.984375 L 13.59375 -62.984375 L 27.84375 -15.296875 L 27.484375 -15.296875 L 27.484375 -60.875 L 23.34375 -60.875 L 23.34375 -62.984375 L 33.65625 -62.984375 L 33.65625 -60.875 L 29.6875 -60.875 L 29.6875 0 L 25.5625 0 L 7.6875 -58.671875 L 8.09375 -58.671875 L 8.09375 -2.109375 L 12.59375 -2.109375 L 12.59375 0 Z M 1.75 0 "/></g></g></g><g fill="#274082" fill-opacity="1"><g transform="translate(338.23459, 81.191519)"><g><path d="M 2.25 0 L 2.25 -2.109375 L 6.390625 -2.109375 L 6.390625 -60.875 L 2.25 -60.875 L 2.25 -62.984375 L 16.15625 -62.984375 C 19 -62.984375 21.601562 -61.847656 23.96875 -59.578125 C 26.34375 -57.316406 28.242188 -53.890625 29.671875 -49.296875 C 31.097656 -44.710938 31.8125 -38.941406 31.8125 -31.984375 C 31.8125 -24.972656 31.085938 -19.085938 29.640625 -14.328125 C 28.203125 -9.578125 26.296875 -6 23.921875 -3.59375 C 21.554688 -1.195312 18.96875 0 16.15625 0 Z M 13.1875 -2.109375 L 15.203125 -2.109375 C 16.910156 -2.109375 18.492188 -3.164062 19.953125 -5.28125 C 21.410156 -7.394531 22.585938 -10.648438 23.484375 -15.046875 C 24.378906 -19.441406 24.828125 -25.085938 24.828125 -31.984375 C 24.828125 -38.078125 24.421875 -43.273438 23.609375 -47.578125 C 22.804688 -51.878906 21.757812 -55.171875 20.46875 -57.453125 C 19.175781 -59.734375 17.796875 -60.875 16.328125 -60.875 L 13.1875 -60.875 Z M 13.1875 -2.109375 "/></g></g></g><g fill="#274082" fill-opacity="1"><g transform="translate(406.176463, 81.191519)"><g><path d="M 8.734375 0 L 8.734375 -2.109375 L 13.09375 -2.109375 L 13.09375 -26.453125 L 4.765625 -60.875 L 0.71875 -60.875 L 0.71875 -62.984375 L 15.875 -62.984375 L 15.875 -60.875 L 12.46875 -60.875 L 19.609375 -28.609375 L 18 -28.609375 L 25.734375 -60.875 L 22.046875 -60.875 L 22.046875 -62.984375 L 32.03125 -62.984375 L 32.03125 -60.875 L 28.03125 -60.875 L 19.84375 -27.359375 L 19.84375 -2.109375 L 23.890625 -2.109375 L 23.890625 0 Z M 8.734375 0 "/></g></g></g><g fill="#274082" fill-opacity="1"><g transform="translate(472.184651, 81.191519)"><g/></g></g><g fill="#274082" fill-opacity="1"><g transform="translate(519.395416, 81.191519)"><g><path d="M 2.25 0 L 2.25 -2.109375 L 6.390625 -2.109375 L 6.390625 -60.875 L 2.25 -60.875 L 2.25 -62.984375 L 16.15625 -62.984375 C 19 -62.984375 21.601562 -61.847656 23.96875 -59.578125 C 26.34375 -57.316406 28.242188 -53.890625 29.671875 -49.296875 C 31.097656 -44.710938 31.8125 -38.941406 31.8125 -31.984375 C 31.8125 -24.972656 31.085938 -19.085938 29.640625 -14.328125 C 28.203125 -9.578125 26.296875 -6 23.921875 -3.59375 C 21.554688 -1.195312 18.96875 0 16.15625 0 Z M 13.1875 -2.109375 L 15.203125 -2.109375 C 16.910156 -2.109375 18.492188 -3.164062 19.953125 -5.28125 C 21.410156 -7.394531 22.585938 -10.648438 23.484375 -15.046875 C 24.378906 -19.441406 24.828125 -25.085938 24.828125 -31.984375 C 24.828125 -38.078125 24.421875 -43.273438 23.609375 -47.578125 C 22.804688 -51.878906 21.757812 -55.171875 20.46875 -57.453125 C 19.175781 -59.734375 17.796875 -60.875 16.328125 -60.875 L 13.1875 -60.875 Z M 13.1875 -2.109375 "/></g></g></g><g fill="#274082" fill-opacity="1"><g transform="translate(587.337289, 81.191519)"><g><path d="M 2.796875 0 L 2.796875 -2.109375 L 7.0625 -2.109375 L 7.0625 -60.875 L 2.796875 -60.875 L 2.796875 -62.984375 L 18.09375 -62.984375 L 18.09375 -60.875 L 13.765625 -60.875 L 13.765625 -2.109375 L 18.09375 -2.109375 L 18.09375 0 Z M 2.796875 0 "/></g></g></g><g fill="#274082" fill-opacity="1"><g transform="translate(641.788187, 81.191519)"><g><path d="M 17.640625 0.90625 C 14.785156 0.90625 12.253906 -0.316406 10.046875 -2.765625 C 7.847656 -5.210938 6.125 -8.832031 4.875 -13.625 C 3.632812 -18.425781 3.015625 -24.351562 3.015625 -31.40625 C 3.015625 -38.457031 3.765625 -44.394531 5.265625 -49.21875 C 6.765625 -54.050781 8.691406 -57.703125 11.046875 -60.171875 C 13.398438 -62.648438 15.851562 -63.890625 18.40625 -63.890625 C 20.382812 -63.890625 22.046875 -63.332031 23.390625 -62.21875 C 24.742188 -61.113281 25.769531 -59.675781 26.46875 -57.90625 C 27.175781 -56.132812 27.53125 -54.226562 27.53125 -52.1875 C 27.53125 -50.65625 27.265625 -49.515625 26.734375 -48.765625 C 26.210938 -48.015625 25.472656 -47.640625 24.515625 -47.640625 C 23.472656 -47.640625 22.707031 -48.019531 22.21875 -48.78125 C 21.738281 -49.550781 21.5 -50.535156 21.5 -51.734375 C 21.5 -52.546875 21.640625 -53.242188 21.921875 -53.828125 C 22.210938 -54.410156 22.5 -55.007812 22.78125 -55.625 C 23.070312 -56.25 23.21875 -57.007812 23.21875 -57.90625 C 23.21875 -58.863281 22.816406 -59.738281 22.015625 -60.53125 C 21.222656 -61.332031 20.226562 -61.734375 19.03125 -61.734375 C 17.4375 -61.734375 16.078125 -60.78125 14.953125 -58.875 C 13.828125 -56.96875 12.90625 -54.484375 12.1875 -51.421875 C 11.46875 -48.367188 10.9375 -45.078125 10.59375 -41.546875 C 10.25 -38.023438 10.078125 -34.644531 10.078125 -31.40625 C 10.078125 -27.050781 10.253906 -23.046875 10.609375 -19.390625 C 10.972656 -15.734375 11.492188 -12.546875 12.171875 -9.828125 C 12.847656 -7.117188 13.65625 -5.019531 14.59375 -3.53125 C 15.539062 -2.050781 16.613281 -1.3125 17.8125 -1.3125 C 18.59375 -1.3125 19.257812 -1.457031 19.8125 -1.75 C 20.375 -2.050781 20.789062 -2.351562 21.0625 -2.65625 L 21.0625 -26.359375 L 17.328125 -26.359375 L 17.328125 -28.484375 L 31.21875 -28.484375 L 31.21875 -26.359375 L 27.3125 -26.359375 L 27.3125 0 L 25.28125 0 C 25.25 -0.09375 25.101562 -0.207031 24.84375 -0.34375 C 24.59375 -0.476562 24.210938 -0.546875 23.703125 -0.546875 C 23.222656 -0.546875 22.707031 -0.429688 22.15625 -0.203125 C 21.601562 0.0234375 20.96875 0.265625 20.25 0.515625 C 19.53125 0.773438 18.660156 0.90625 17.640625 0.90625 Z M 17.640625 0.90625 "/></g></g></g><g fill="#274082" fill-opacity="1"><g transform="translate(708.02127, 81.191519)"><g><path d="M 2.796875 0 L 2.796875 -2.109375 L 7.0625 -2.109375 L 7.0625 -60.875 L 2.796875 -60.875 L 2.796875 -62.984375 L 18.09375 -62.984375 L 18.09375 -60.875 L 13.765625 -60.875 L 13.765625 -2.109375 L 18.09375 -2.109375 L 18.09375 0 Z M 2.796875 0 "/></g></g></g><g fill="#274082" fill-opacity="1"><g transform="translate(762.472168, 81.191519)"><g><path d="M 8.140625 0 L 8.140625 -2.109375 L 12.78125 -2.109375 L 12.78125 -60.875 L 9.671875 -60.875 C 8.109375 -60.875 6.914062 -60.488281 6.09375 -59.71875 C 5.269531 -58.957031 4.710938 -57.773438 4.421875 -56.171875 C 4.140625 -54.566406 4 -52.503906 4 -49.984375 L 1.84375 -49.984375 L 1.84375 -62.984375 L 30.375 -62.984375 L 30.375 -49.984375 L 28.25 -49.984375 C 28.25 -52.503906 28.097656 -54.566406 27.796875 -56.171875 C 27.503906 -57.773438 26.953125 -58.957031 26.140625 -59.71875 C 25.328125 -60.488281 24.144531 -60.875 22.59375 -60.875 L 19.484375 -60.875 L 19.484375 -2.109375 L 24.34375 -2.109375 L 24.34375 0 Z M 8.140625 0 "/></g></g></g><g fill="#274082" fill-opacity="1"><g transform="translate(828.300522, 81.191519)"><g><path d="M 0.1875 0 L 0.1875 -2.109375 L 4 -2.109375 L 12.875 -63.125 L 16.328125 -63.125 L 25.59375 -2.109375 L 29.78125 -2.109375 L 29.78125 0 L 14.390625 0 L 14.390625 -2.109375 L 18.3125 -2.109375 L 12.28125 -46.875 L 12.46875 -46.875 L 6.25 -2.109375 L 9.71875 -2.109375 L 9.71875 0 Z M 7.109375 -14.4375 L 7.109375 -16.515625 L 17.765625 -16.515625 L 17.765625 -14.4375 Z M 7.109375 -14.4375 "/></g></g></g><g fill="#274082" fill-opacity="1"><g transform="translate(891.700424, 81.191519)"><g><path d="M 2.65625 0 L 2.65625 -2.109375 L 6.703125 -2.109375 L 6.703125 -60.875 L 2.65625 -60.875 L 2.65625 -62.984375 L 17.546875 -62.984375 L 17.546875 -60.875 L 13.40625 -60.875 L 13.40625 -2.109375 L 17.328125 -2.109375 C 18.765625 -2.109375 19.910156 -2.53125 20.765625 -3.375 C 21.617188 -4.21875 22.222656 -5.445312 22.578125 -7.0625 C 22.941406 -8.6875 23.125 -10.710938 23.125 -13.140625 L 25.28125 -13.140625 L 25.28125 0 Z M 2.65625 0 "/></g></g></g></g></g></svg>